<svg width="497" height="59" xmlns="http://www.w3.org/2000/svg" xmlns:xlink="http://www.w3.org/1999/xlink"><defs><path id="a" d="M41.287 40H3.059V3.609h38.228V40z"/><path id="c" d="M1.891 36h32.428V.43H1.891z"/><path id="e" d="M3.179 40h26.78V3.608H3.179z"/><path id="g" d="M20.474 40h16.522V3.608H3.952V40h16.522z"/></defs><g fill="none" fill-rule="evenodd"><path d="M81.84 9.425h9.4l9.472 23.916c1.092 2.86 2.452 7.088 2.452 7.088h.136s1.296-4.228 2.384-7.088l9.472-23.916h9.404l3.884 48.376h-8.724l-2.048-27.052c-.2-3.2-.064-7.492-.064-7.492h-.136s-1.432 4.7-2.588 7.492l-7.836 18.74h-7.7l-7.764-18.74c-1.16-2.792-2.66-7.56-2.66-7.56h-.136s.136 4.36-.068 7.56L86.672 57.8h-8.788L81.84 9.425z" fill="#000"/><g transform="translate(128 18.622)"><mask id="b" fill="#fff"><use xlink:href="#a"/></mask><path d="M22.207 32.64c5.584 0 10.288-4.367 10.288-10.835 0-6.408-4.704-10.836-10.288-10.836-5.66 0-10.356 4.428-10.356 10.836 0 6.468 4.696 10.836 10.356 10.836m-.072-29.032c10.632 0 19.152 7.568 19.152 18.196C41.287 32.5 32.767 40 22.207 40 11.575 40 3.06 32.5 3.06 21.805c0-10.628 8.516-18.196 19.076-18.196" fill="#000" mask="url(#b)"/></g><path d="M190.871 51.325c4.496 0 8.724-3.264 8.724-10.968 0-5.384-2.864-10.696-8.656-10.696-4.768 0-8.724 3.884-8.724 10.764 0 6.612 3.544 10.9 8.656 10.9m-1.636-29.092c7.632 0 10.016 4.428 10.016 4.428h.14s-.072-.884-.072-1.976V9.425h8.656v48.376h-8.18v-2.868c0-1.288.14-2.24.14-2.24h-.14s-2.928 5.928-10.9 5.928c-9.404 0-15.396-7.428-15.396-18.196 0-11.036 6.54-18.192 15.736-18.192" fill="#000"/><g transform="translate(212 22.622)"><mask id="d" fill="#fff"><use xlink:href="#c"/></mask><path d="M1.89.43h8.649v20.576c0 4.22 1.096 7.088 5.384 7.088 6.268 0 9.74-5.524 9.74-11.724V.43h8.656v34.752h-8.312v-3.956c0-1.36.132-2.452.132-2.452h-.132c-1.7 3.608-6.132 7.228-12.056 7.228-7.428 0-12.06-3.752-12.06-13.224V.43z" fill="#000" mask="url(#d)"/></g><g transform="translate(248 18.622)"><mask id="f" fill="#fff"><use xlink:href="#e"/></mask><path d="M7.13 28.82s3.813 3.82 9.477 3.82c2.444 0 4.556-1.092 4.556-3.14 0-5.176-16.892-4.496-16.892-15.668 0-6.472 5.788-10.224 13.28-10.224 7.836 0 11.66 3.956 11.66 3.956l-3.204 6.404s-3.204-3-8.516-3c-2.252 0-4.432.952-4.432 3.132 0 4.908 16.9 4.3 16.9 15.468C29.959 35.36 24.91 40 16.67 40c-8.656 0-13.492-5.116-13.492-5.116L7.13 28.82z" fill="#000" mask="url(#f)"/></g><path d="M320.858 8.608c11.788 0 17.852 6.608 17.852 6.608l-4.22 6.54s-5.524-5.112-13.22-5.112c-10.224 0-16.216 7.632-16.216 16.632 0 9.196 6.196 17.3 16.28 17.3 8.384 0 14.04-6.128 14.04-6.128l4.632 6.336s-6.68 7.836-19.008 7.836c-14.788 0-25.008-10.976-25.008-25.212 0-14.036 10.632-24.8 24.868-24.8m23.788 14.444h8.312v5.992c0 1.296-.132 2.452-.132 2.452h.132c1.572-4.968 5.728-8.92 11.04-8.92.82 0 1.568.136 1.568.136v8.516s-.88-.136-2.044-.136c-3.68 0-7.828 2.108-9.468 7.288-.548 1.704-.752 3.616-.752 5.656v13.768h-8.656V23.052zm47.602 13.082c-.132-4.7-3.064-7.224-6.884-7.224-4.428 0-7.492 2.728-8.312 7.224h15.196zm-6.672-13.904c10.008 0 15.392 7.296 15.392 16.492 0 1.024-.204 3.336-.204 3.336H376.78c.548 6.064 5.248 9.204 10.428 9.204 5.588 0 10.016-3.82 10.016-3.82l3.336 6.204s-5.312 4.976-13.968 4.976c-11.516 0-18.664-8.312-18.664-18.196 0-10.7 7.288-18.196 17.648-18.196zm33.586 29.642c4.564 0 7.828-4.908 7.828-9.128v-.816h-1.492c-4.428 0-11.584.608-11.584 5.444 0 2.32 1.7 4.5 5.248 4.5m6.608-15.876h1.156v-.476c0-4.568-2.864-6.132-6.68-6.132-4.976 0-9.536 3.336-9.536 3.336l-3.268-6.196s5.376-4.296 13.628-4.296c9.124 0 14.444 5.048 14.444 13.832V57.8h-7.976v-2.864c0-1.36.132-2.448.132-2.448h-.132c.068 0-2.656 6.132-10.556 6.132-6.204 0-11.796-3.888-11.796-10.832 0-11.04 14.928-11.792 20.584-11.792m17.931-5.522h-4.5v-6.876h4.704V13.582h8.452v10.016h7.908v6.876h-7.908V43.97c0 5.724 4.492 6.544 6.884 6.544.952 0 1.56-.14 1.56-.14v7.56s-1.024.212-2.656.212c-4.844 0-14.444-1.436-14.444-13.088V30.474z" fill="#000"/><g transform="translate(460 18.622)"><mask id="h" fill="#fff"><use xlink:href="#g"/></mask><path d="M28.272 17.512c-.132-4.7-3.064-7.224-6.876-7.224-4.436 0-7.5 2.728-8.312 7.224h15.188zM21.6 3.608C31.616 3.608 37 10.904 37 20.1c0 1.024-.212 3.336-.212 3.336H12.812c.54 6.064 5.24 9.204 10.42 9.204 5.588 0 10.016-3.82 10.016-3.82l3.336 6.204S31.272 40 22.616 40C11.1 40 3.952 31.688 3.952 21.804c0-10.7 7.288-18.196 17.648-18.196z" fill="#000" mask="url(#h)"/></g><path d="M31.597 30.43c-.392 0-.78-.011-1.168-.035a30.465 30.465 0 0 1-1.704 8.424 28.41 28.41 0 0 0 2.872.144c15.724 0 28.508-12.532 28.94-28.148a20 20 0 0 0-8.98 3.528C49.56 23.53 41.369 30.43 31.597 30.43" fill="#F30"/><path d="M34.233 28.673c0 .032.004.064.004.1a18.79 18.79 0 0 0 7.864-3.024c2.1-8.68 9.412-15.324 18.436-16.424A28.84 28.84 0 0 0 58.781.05c-13.9 2.124-24.548 14.132-24.548 28.624" fill="#903"/><path d="M63.193 57.596c-11.928 0-22.168-7.212-26.604-17.512a29.992 29.992 0 0 0 6.244-1.74c3.056 8.28 11.02 14.18 20.36 14.18v5.072z" fill="#F90"/><path d="M0 57.596c15.996 0 28.96-12.964 28.96-28.96 0-10.936-6.064-20.456-15.012-25.38a18.792 18.792 0 0 0-.94 10.196c5.276 3.96 8.692 10.264 8.692 17.372 0 11.984-9.716 21.7-21.7 21.7v5.072z" fill="#069"/><path d="M19.42 36.281a20.06 20.06 0 0 0 .315-9.66c-5.18-3.708-8.568-9.772-8.568-16.616 0-2.636.508-5.152 1.42-7.468A28.716 28.716 0 0 0 4.415.001a28.799 28.799 0 0 0-1.78 10.004c0 11.644 6.876 21.676 16.784 26.276" fill="#090"/></g></svg>
